<svg xmlns="http://www.w3.org/2000/svg" viewBox="0 0 64 64">
  <rect width="64" height="64" rx="14" fill="#0e0d0c"/>
  <path fill="#F7F3EE" d="M44.5,27.2c1.8-.2,4.4-.5,7.5-.6-.4-.1-1-.2-1.8-.3-3.6-.5-6.3-.6-11.6-1c-3.5-.3-4.5-.5-5-1.3c-.9-1.3-.2-3.2.2-4.2h0l1.6-3.2c1-2,2.1-4.1,3.1-6.1c1.8-3.6-.8-7.8-4.8-7.8h-10.1c-2.2,0-4.2,1.3-5,3.4l-7.1,17.6l-.1-.1v-15.5c0-3-2.4-5.4-5.4-5.4h-9.8c-3,0-5.4,2.4-5.4,5.4v14.4c.1,0,0,1.4.9,2.4c.8.8,2,.9,2.6,1c5.1.3,10.7-.1,15.6.6c.8.1,1.4.2,1.8.3c-2.9.2-5.4.4-7.5.6c-8.1.7-9.8,1.3-11,2.7c-.9,1-1.9,2.8-2.2,4.6c-.1.4-.2,1.3-.2,2.3c0,.1,0,.3,0,.4v10c0,3,2.4,5.4,5.4,5.4h9.8c3,0,5.4-2.4,5.4-5.4v-18.1l.1-.1l7.5,20.1c.8,2.1,2.8,3.5,5.1,3.5h10.9c4,0,6.6-4.1,4.9-7.7l-4.8-10.1c-.2-.5-.4-1.1-.5-1.8c-.2-.8-.2-1.8-.1-2.2c.4-2.3,6.6-3.1,10.2-3.6Z"/>
</svg>
